<svg width="131" height="40" version="1.1" viewBox="0 0 39.541572 10.583379" xmlns="http://www.w3.org/2000/svg">
 <g transform="translate(-21.387 -41.457)">
  <path d="m202.18 108.52c-4.354-1.0551-5.6606-2.0575-5.0808-3.8982 0.37846-1.2015 1.5155-1.3089 4.3807-0.41374 4.2827 1.3379 8.702 1.0385 8.702-0.58964 0-0.80169-1.0485-1.2686-4.9405-2.1999-8.4425-2.0203-10.766-7.0983-4.5212-9.8816 6.0202-2.6832 17.316 0.67227 12.121 3.6007l-1.049 0.5913-1.9285-0.69871c-2.4159-0.87532-5.8521-0.76264-6.4588 0.21179-0.59643 0.95806-0.37053 1.0751 4.4994 2.331 7.782 2.007 10.008 5.0908 6.4478 8.9313-1.8178 1.9607-8.1036 3.0016-12.172 2.0157zm20.72-0.36027c-4.007-1.6263-5.9064-4.7462-5.6226-9.2357l0.42803-2.5119 0.88716-1.7332c2.6614-5.1996 11.557-5.5549 15.987-1.4399 6.2075 5.7653 2.0895 15.146-6.8322 15.563l-2.8838-0.0834zm7.393-4.4709c4.6008-3.6443-0.15566-11.392-5.2077-8.7595-4.6023 2.398-2.7897 9.9546 2.4085 10.041l1.556-0.2965zm37.281 4.6165c-3.2564-1.4232-4.0363-3.0221-4.2971-8.8093l-0.20346-4.5158-1.9517-0.40047c-5.2346-1.0741-2.7892-4.0753-0.16443-4.1429 1.7267-0.0072 2.437-0.1822 2.522-1.7678 0.21147-3.9446 5.2541-4.1281 5.2541-0.33875 0 1.8302 0.5843 2.1125 4.3718 2.1125h3.435l0.78067 0.78661c0.95937 0.96663 0.18565 2.2264 0.0774 2.3612l-0.7033 0.8751-3.6881 0.20696c-4.3204 0.24247-4.2599 0.18376-4.2676 4.1405-0.0107 5.4653 0.92597 6.483 5.5974 6.082 3.3633-0.28869 4.7485 0.60775 3.774 2.4425-0.83235 1.5671-7.7182 2.1994-10.537 0.96763zm-170.62-0.14642c-1.7421-0.53197-3.1065-1.6566-3.8921-3.2083l-0.46213-1.6839-0.29607-5.9031v-6.0896l0.86754-0.61224c1.0793-0.76169 2.2658-0.78175 3.254-0.05505l0.75771 0.55723 0.19723 5.9687 0.19724 5.9687c0.20746 0.92574 0.13646 0.66636 0.41266 0.9791 1.1939 1.3519 5.8882 0.0342 6.976-1.5305l0.6092-0.87635v-10.4l0.86756-0.61224c1.1027-0.77824 2.2366-0.77824 3.3394 0l0.86755 0.61224v7.5719c0 9.1062-0.89763 11.139-3.9471 8.8429l-0.99643-0.55176-2.137 0.86317c-2.3956 0.96761-4.8392 0.70093-6.6153 0.15861zm43.66-0.0157c-10.995-3.3358-5.4515-20.867 5.6242-17.786 1.953 0.54333 2.2747 0.08218 2.2747-3.2608 0-3.9963 2.6833-6.0909 4.5347-3.5397l0.53977 0.74381v10.905c0 13.285-0.0468 13.439-3.7993 12.48l-1.5576-0.39834-1.8241 0.62396c-1.9564 0.66928-4.0725 0.75418-5.7924 0.2324zm5.9551-4.1355c1.616-0.84197 1.9439-1.7024 1.9439-5.1009v-2.9935l-0.9581-0.96537c-1.8721-1.8863-5.7846-1.0273-6.9913 1.5349-2.3281 4.9433 1.5747 9.8335 6.0055 7.5249zm17.753 4.1432c-9.9002-2.5645-10.325-14.729-0.61357-17.577 6.2258-1.8254 12.519 1.7861 12.519 7.1843v1.6857l-0.14134 1.2332-1.5938-9e-3h-5.7805l-6.0803-0.0466-0.051 0.66495c-0.0593 0.77276 0.9187 1.9908 2.4847 2.8068 1.1209 0.58403 2.9262 0.55565 7.5417-0.11864l1.5954-0.0427 0.7863 0.76999 0.0202 1.0812-0.82359 0.99005c-1.4585 1.7533-6.7237 2.1902-9.8632 1.3769zm6.4406-12.157c0-1.0776-1.6718-2.012-3.597-2.0103-1.8555 6.08e-4 -4.6593 1.1469-4.6593 2.0955l-0.26967 0.74669 4.6225-0.09061h3.9034zm8.8141 11.962-0.61694-0.99428v-7.3976c0-7.9773 0.11405-8.4754 2.0485-8.9454l1.362 0.38086 1.6738 1.788s0.55469 0.23726 2.7704-0.73293c4.1032-1.7967 8.9299-1.4273 8.9299 0.68329 0 1.6408-0.66734 2.0304-3.4936 2.04-2.9252 0.01-5.1196 0.8576-6.7215 2.5966l-1.042 1.1312-0.12896 4.406c-0.14059 4.8001-0.28959 5.1461-2.3632 5.4852l-0.98861 0.0663zm64.18-0.20769-0.78067-0.78661v-11.819l-1.0013-0.38357c-0.5507-0.21097-1.4817-0.38357-2.0688-0.38357-1.3588 0-2.0044-0.65428-2.0044-2.0313 0-1.2726 0.92076-1.8989 2.8043-1.9077 1.7086-0.0072 2.0246-0.2791 2.5867-2.219 0.98579-3.4023 5.2905-5.5685 10.156-5.1106 6.1174 0.57559 6.2935 3.9926 0.20581 3.9926l-3.0395 0.26292-0.97868 0.502c-0.55595 0.28518-0.788 1.1277-0.72474 1.5732l0.11477 0.80831 2.9177 0.11728c6.13 0.24653 6.1586 3.8662 0.0333 4.1848-3.7297 0.194-3.5364-0.17284-3.5364 6.7112v6.0507l-0.86754 0.61225c-1.1955 0.8437-2.8826 0.76662-3.8165-0.17434zm-128.64-0.57208-0.95811-0.96536v-14.588l0.78066-0.78661c1.0023-1.0099 1.9727-0.99589 3.2892 0.04746l1.0523 0.83406 2.5216-0.83406c3.1926-1.056 5.171-1.054 7.6205 0.0072l1.9421 0.84185 1.0578 1.813 1.0578 1.813-0.0764 5.6674-0.0763 5.6674-0.60123 0.6058c-0.73695 0.74255-3.0476 0.79342-3.8938 0.0856l-0.62199-0.5201-2e-3 -4.5732c-2e-3 -6.9689-0.59962-8.3095-3.696-8.3095-4.0276 0-4.8219 1.2767-4.9771 7.9999l-0.1076 4.6569-0.92151 0.75105c-1.2379 1.0089-2.2388 0.94557-3.39-0.21434z" style="fill:#000000;stroke-width:0.0821697"/>
  <path d="m46.879 120.18c-0.05928-0.0593-0.10778-9.5373-0.10778-21.062v-20.955h42.125l-0.04077 21.022-0.04077 21.022-20.914 0.0408c-11.503 0.0224-20.962-8e-3 -21.022-0.067zm-23.863-42.378 0.040884-18.209h36.336v16.238l-14.548 0.08362-0.08282 20.013-21.787 0.08264zm68.291 3.0134v-4.7429h-10.45v-20.258h29.744v29.744h-19.293zm-24.599-29.02v-9.8074h19.448l0.08813 0.36175c0.04849 0.19896 0.06794 2.8216 0.04327 5.8282l-0.04491 5.4664-7.7173 0.16078-0.04302 3.8988-0.04308 3.8988h-11.731zm-18.612-1.4872 0.04255-4.8635 9.727-0.0851v9.8121h-9.8121z" style="fill:#000000;stroke-width:0.200249"/>
 </g>
</svg>
